<?xml version="1.0" encoding="UTF-8" standalone="no"?>
<svg
   xmlns:dc="http://purl.org/dc/elements/1.1/"
   xmlns:cc="http://creativecommons.org/ns#"
   xmlns:rdf="http://www.w3.org/1999/02/22-rdf-syntax-ns#"
   xmlns:svg="http://www.w3.org/2000/svg"
   xmlns="http://www.w3.org/2000/svg"
   viewBox="0 0 645.88 540.49335"
   height="540.49335"
   width="645.88"
   xml:space="preserve"
   id="svg2"
   version="1.1"><metadata
     id="metadata8"><rdf:RDF><cc:Work
         rdf:about=""><dc:format>image/svg+xml</dc:format><dc:type
           rdf:resource="http://purl.org/dc/dcmitype/StillImage" /></cc:Work></rdf:RDF></metadata><defs
     id="defs6" /><g
     transform="matrix(1.3333333,0,0,-1.3333333,0,540.49333)"
     id="g10"><g
       transform="scale(0.1)"
       id="g12"><path
         id="path14"
         style="fill:#040606;fill-opacity:1;fill-rule:nonzero;stroke:none"
         d="m 3893.19,2463.15 c 289.8,267.71 367.24,-67.83 -143.29,-156.73 40.21,52.02 87.57,105.27 143.29,156.73 z M 2272.55,2296.24 c -66.14,-80.64 -173.14,-197.87 -217.7,-172.26 -26.95,15.5 26.11,172.45 114.87,263.34 102.13,104.59 232.47,150.51 254.82,119.58 -71.35,-57.92 -119.13,-144.8 -151.99,-210.66 z m 2538.14,54.41 c -62.5,-25 -170,-62.5 -170,-62.5 0,0 182.68,-364.8 -125,-525 -302.5,-157.5 -600,382.5 -637.5,495 270,45 425,250 345,360 -80,110 -260,80 -570,-330 125,320 427.5,750 517.5,857.5 -92.5,55 -155,115 -247.5,-22.5 -71.18,-105.79 -219.33,-370.84 -335.08,-626.81 -114.6,-178.12 -273.61,-378.68 -301.59,-364.02 -35,18.33 48.34,143.33 103.34,248.58 55,105.24 71.66,209.75 -38.34,256.42 -110,46.66 -311.66,-191.67 -311.66,-191.67 0,0 40,108.33 -68.34,156.03 -108.33,47.7 -280,-156.03 -436.66,-356.03 -156.67,-200 -206.67,-123.33 -133.34,5 88.21,154.37 221.67,266.67 221.67,266.67 -62.28,60.27 -116.08,52.09 -163.59,18.95 -8.27,42.72 -48.06,96.8 -211.41,42.71 -194.24,-64.3 -306.78,-217.47 -349.94,-343.16 -93.55,-86.36 -203.72,-148.34 -235.06,-132.67 -45,22.5 140,292.5 185,365 45,72.5 -22.5,170 -127.5,120 -135.45,-64.5 -317.5,-237.5 -317.5,-237.5 0,0 84.47,201.24 366.43,631.6 473.29,-53.31 576.9,168.4 576.9,168.4 0,0 -8.33,5 -18.33,17.5 -88.85,-67.35 -249.27,-72.22 -467.39,-49.56 590.48,856.62 1142.51,978.05 1557.39,759.56 422.5,-222.5 242.5,-900 -182.5,-935 -444.2,-36.58 -585,357.5 -585,357.5 l -145,-95 c 0,0 121.98,-219.45 357.5,-300 577.5,-197.5 862.5,225 915,472.5 52.17,245.98 -145,745.01 -822.5,667.51 -641.81,-73.42 -1070.43,-638.11 -1251.97,-907.82 -126.17,17.28 -266.9,39.8 -420.53,62.81 -268.41,40.2 -590.178,109.53 -845.002,45 -236.489,-59.88 -410.0005,-245 -432.5005,-432.5 -66.832,-556.94 477.5005,-487.5 477.5005,-487.5 v 160 c -497.5005,-47.5 -454.2075,458.07 -225,590 187.546,107.95 635.05,53.74 1099.232,-24.31 -80.88,-70.64 -190.62,-193.61 -261.73,-340.69 -110.002,-227.5 -306.245,-656.92 -490.002,-997.5 -157.274,-291.48 -450.485,-375.98 -510.0005,-237.5 -62.4297,145.27 130.0005,205 130.0005,205 0,0 -42.5,60 -90,112.5 -252.501,-172.5 -144.96925,-565.71 270,-405 432.5,167.5 670.002,852.5 825.002,1222.5 92.2,220.11 179.09,351.73 234.37,422.26 51.37,-8.93 102.71,-18.02 153.7,-27.09 -161.67,-262.43 -378.02,-668 -418.07,-772.05 -45,-116.88 -57.5,-135.62 67.5,-232.88 92.5,147.75 180,284.76 402.5,464.76 -120,-165 -247.5,-367.5 -127.5,-464.76 89.77,-72.75 257.87,42.95 336.88,105.87 18.48,-108.11 153.06,-185.98 346.12,46.98 -6.15,-59.52 10.29,-112.96 68.66,-144.76 168.34,-91.66 376.67,268.34 530.01,435 68.2,74.14 116.66,81.67 85,11.67 -34.47,-76.17 -137.52,-258.55 -155,-286.67 -62.51,-100.51 -15,-128.33 75,-156.66 35,85 220,321.66 308.33,410 88.33,88.33 171.67,143.33 118.33,46.66 -53.33,-96.66 -218.33,-423.33 -93.33,-468.09 101.39,-36.3 211.46,56.64 295.94,158.2 -41.24,-160.6 16.4,-171.25 91.56,-223.44 0,0 44.22,159.14 177.02,341.3 78.57,-324.3 333.58,-623.98 650.48,-631.3 325,-7.5 555,325 432.5,705" /><path
         id="path16"
         style="fill:#040606;fill-opacity:1;fill-rule:nonzero;stroke:none"
         d="m 1048.19,123.98 c -333.151,-200.3081 -586.67,110 -686.67,290 -100,180 -106.512,434.399 286.668,423.34 218.175,-6.14 522.202,-77.601 850.302,-172.441 -149.71,-230.75 -320,-462.547 -450.3,-540.899 z m 2836.67,356.668 c -515.9,-389.3472 -1473.9,67.661 -2154.74,282.883 273.13,445.739 515.57,964.619 515.57,964.619 0,0 -110.84,-7.5 -165,-10 -44.17,-119.17 -492.61,-685.17 -502.5,-645 -41.67,169.17 240,680 240,680 0,0 -106.82,4.45 -146.67,-25.83 -90.08,-68.44 -283.33,-510 -240,-673.34 43.33,-163.332 190,-80 396.67,150 -36.27,-55.06 -127.22,-215.421 -240.1,-397.609 C 1263.36,900.672 911.461,978.91 643.188,950.648 360.805,920.91 170.75,771.109 221.52,513.98 c 123.085,-623.371 706.668,-620 1083.33,-306.66 103.14,85.801 220.34,238.7 336.16,415.418 434.2,-130.976 894.15,-291.347 1243.85,-388.758 730,-203.3316 1030,216.668 1030,216.668 0,0 -13.34,10 -30,30" /><path
         id="path18"
         style="fill:#040606;fill-opacity:1;fill-rule:nonzero;stroke:none"
         d="m 2788.19,1613.15 v 53.75 c 0,0 -251.25,136.25 -532.5,-135 -285.68,-275.51 -207.5,-675.002 72.5,-622.502 152.74,28.653 282.31,162.192 364.99,297.542 34.83,-2.66 69.02,-0.22 97.77,6.92 -33.44,-120.93 -14.06,-220.981 42.24,-258.212 151.25,-100 431.25,301.252 431.25,301.252 0,0 -151.25,-397.502 106.25,-475.002 265.93,-80.027 531.25,330.002 531.25,330.002 0,0 -135,40 -163.75,53.75 0,-3.75 -137.93,-242.521 -285,-288.959 -153.75,-48.543 -181.25,122.707 -81.25,318.959 100,196.25 263.75,400 263.75,400 l -202.5,20 c 0,0 -291.25,-412.05 -383.75,-491.25 -205.89,-176.271 -180,-40 -115,95 70.91,147.3 287.5,416.25 287.5,416.25 h -198.75 c -47.92,-50.17 -132.19,-180.44 -191.82,-314.2 -21.14,-11.91 -50.81,-22.88 -90.31,-25.2 37.02,80.08 54.63,152.32 47.13,193.15 -22.5,122.5 -196.25,158.75 -282.5,-62.5 -28.01,-71.85 -10.38,-124.7 29.03,-160.68 -85.86,-126.73 -202.92,-262.24 -299.03,-228.07 -112.5,40 170,693.75 552.5,575" /></g></g></svg>